<svg width="250" height="52" viewBox="0 0 250 52" fill="none" xmlns="http://www.w3.org/2000/svg">
<path d="M24.1079 0.418545L43.5296 11.6318C44.0045 11.906 44.3989 12.3004 44.6731 12.7753C44.9473 13.2502 45.0916 13.7889 45.0917 14.3373V36.7639C45.0916 37.3123 44.9473 37.851 44.6731 38.3259C44.3989 38.8008 44.0045 39.1951 43.5296 39.4693L24.1079 50.6826C23.6329 50.9568 23.0942 51.1012 22.5458 51.1012C21.9974 51.1012 21.4587 50.9568 20.9838 50.6826L1.56203 39.4693C1.08713 39.1951 0.692758 38.8008 0.418565 38.3259C0.144372 37.851 1.39309e-05 37.3123 0 36.7639V14.3373C1.39309e-05 13.7889 0.144372 13.2502 0.418565 12.7753C0.692758 12.3004 1.08713 11.906 1.56203 11.6318L20.9838 0.418545C21.4587 0.144351 21.9974 0 22.5458 0C23.0942 0 23.6329 0.144351 24.1079 0.418545Z" fill="#001D87"/>
<path d="M9.54736 31.7207L15.1607 26.1074C15.216 26.052 15.2599 25.9863 15.2899 25.914C15.3199 25.8417 15.3353 25.7641 15.3353 25.6858C15.3353 25.6075 15.3199 25.53 15.2899 25.4577C15.2599 25.3854 15.216 25.3196 15.1607 25.2643L9.5644 19.6675L11.7809 17.4507L18.2114 23.8812C18.4484 24.1182 18.6363 24.3994 18.7645 24.709C18.8928 25.0185 18.9588 25.3503 18.9588 25.6854C18.9588 26.0205 18.8928 26.3523 18.7645 26.6618C18.6363 26.9714 18.4484 27.2526 18.2114 27.4896L11.7973 33.904L9.54736 31.7207ZM35.9863 19.6675L30.373 25.281C30.3177 25.3364 30.2737 25.4021 30.2438 25.4744C30.2138 25.5468 30.1984 25.6243 30.1984 25.7026C30.1984 25.7809 30.2138 25.8584 30.2438 25.9307C30.2737 26.0031 30.3177 26.0688 30.373 26.1241L35.9693 31.7207L33.7528 33.9374L27.3223 27.5069C27.0853 27.27 26.8974 26.9887 26.7692 26.6792C26.6409 26.3696 26.5749 26.0378 26.5749 25.7027C26.5749 25.3677 26.6409 25.0359 26.7692 24.7263C26.8974 24.4168 27.0853 24.1355 27.3223 23.8986L33.7364 17.4845L35.9863 19.6675ZM16.7235 12.4849L22.3368 18.0982C22.3921 18.1535 22.4578 18.1974 22.5302 18.2274C22.6025 18.2574 22.68 18.2728 22.7583 18.2728C22.8366 18.2728 22.9142 18.2574 22.9865 18.2274C23.0588 18.1974 23.1245 18.1535 23.1799 18.0982L28.7767 12.5019L30.9935 14.7184L24.5629 21.1489C24.326 21.3859 24.0447 21.5738 23.7352 21.702C23.4256 21.8303 23.0938 21.8963 22.7588 21.8963C22.4237 21.8963 22.0919 21.8303 21.7824 21.702C21.4728 21.5738 21.1915 21.3859 20.9546 21.1489L14.5405 14.7348L16.7235 12.4849ZM28.8102 38.9238L23.1966 33.3105C23.1413 33.2552 23.0756 33.2112 23.0032 33.1813C22.9309 33.1513 22.8534 33.1359 22.7751 33.1359C22.6968 33.1359 22.6193 33.1513 22.5469 33.1813C22.4746 33.2112 22.4089 33.2552 22.3535 33.3105L16.757 38.9068L14.5402 36.6903L20.9708 30.2598C21.2077 30.0228 21.489 29.8349 21.7985 29.7067C22.1081 29.5784 22.4399 29.5124 22.7749 29.5124C23.11 29.5124 23.4418 29.5784 23.7513 29.7067C24.0609 29.8349 24.3422 30.0228 24.5791 30.2598L30.9932 36.6739L28.8102 38.9238Z" fill="white"/>
<path d="M59.2614 37L52.6023 13.7273H57.9773L61.8295 29.8977H62.0227L66.2727 13.7273H70.875L75.1136 29.9318H75.3182L79.1705 13.7273H84.5455L77.8864 37H73.0909L68.6591 21.7841H68.4773L64.0568 37H59.2614ZM91.8876 37.3409C90.0922 37.3409 88.5467 36.9773 87.2512 36.25C85.9634 35.5152 84.9709 34.4773 84.274 33.1364C83.577 31.7879 83.2285 30.1932 83.2285 28.3523C83.2285 26.5568 83.577 24.9811 84.274 23.625C84.9709 22.2689 85.952 21.2121 87.2172 20.4545C88.4899 19.697 89.9823 19.3182 91.6944 19.3182C92.8459 19.3182 93.9179 19.5038 94.9103 19.875C95.9103 20.2386 96.7816 20.7879 97.524 21.5227C98.274 22.2576 98.8573 23.1818 99.274 24.2955C99.6906 25.4015 99.899 26.697 99.899 28.1818V29.5114H85.1603V26.5114H95.3422C95.3422 25.8144 95.1906 25.197 94.8876 24.6591C94.5846 24.1212 94.1641 23.7008 93.6262 23.3977C93.0959 23.0871 92.4785 22.9318 91.774 22.9318C91.0391 22.9318 90.3876 23.1023 89.8194 23.4432C89.2588 23.7765 88.8194 24.2273 88.5012 24.7955C88.1831 25.3561 88.0202 25.9811 88.0126 26.6705V29.5227C88.0126 30.3864 88.1717 31.1326 88.4899 31.7614C88.8156 32.3902 89.274 32.875 89.8649 33.2159C90.4558 33.5568 91.1566 33.7273 91.9672 33.7273C92.505 33.7273 92.9975 33.6515 93.4444 33.5C93.8914 33.3485 94.274 33.1212 94.5922 32.8182C94.9103 32.5152 95.1528 32.1439 95.3194 31.7045L99.7967 32C99.5694 33.0758 99.1035 34.0152 98.399 34.8182C97.702 35.6136 96.8005 36.2348 95.6944 36.6818C94.5959 37.1212 93.327 37.3409 91.8876 37.3409ZM101.869 37V13.7273H106.71V22.4773H106.858C107.07 22.0076 107.377 21.5303 107.778 21.0455C108.187 20.553 108.717 20.1439 109.369 19.8182C110.028 19.4848 110.846 19.3182 111.824 19.3182C113.096 19.3182 114.27 19.6515 115.346 20.3182C116.422 20.9773 117.282 21.9735 117.926 23.3068C118.57 24.6326 118.892 26.2955 118.892 28.2955C118.892 30.2424 118.577 31.8864 117.949 33.2273C117.327 34.5606 116.479 35.572 115.403 36.2614C114.335 36.9432 113.138 37.2841 111.812 37.2841C110.873 37.2841 110.074 37.1288 109.414 36.8182C108.763 36.5076 108.229 36.1174 107.812 35.6477C107.395 35.1705 107.077 34.6894 106.858 34.2045H106.642V37H101.869ZM106.608 28.2727C106.608 29.3106 106.752 30.2159 107.039 30.9886C107.327 31.7614 107.744 32.3636 108.289 32.7955C108.835 33.2197 109.498 33.4318 110.278 33.4318C111.066 33.4318 111.733 33.2159 112.278 32.7841C112.824 32.3447 113.236 31.7386 113.517 30.9659C113.805 30.1856 113.949 29.2879 113.949 28.2727C113.949 27.2652 113.808 26.3788 113.528 25.6136C113.248 24.8485 112.835 24.25 112.289 23.8182C111.744 23.3864 111.074 23.1705 110.278 23.1705C109.49 23.1705 108.824 23.3788 108.278 23.7955C107.74 24.2121 107.327 24.803 107.039 25.5682C106.752 26.3333 106.608 27.2348 106.608 28.2727ZM120.933 37V13.7273H130.115C131.88 13.7273 133.383 14.0644 134.626 14.7386C135.868 15.4053 136.815 16.3333 137.467 17.5227C138.126 18.7045 138.455 20.0682 138.455 21.6136C138.455 23.1591 138.122 24.5227 137.455 25.7045C136.789 26.8864 135.823 27.8068 134.558 28.4659C133.3 29.125 131.777 29.4545 129.99 29.4545H124.137V25.5114H129.194C130.141 25.5114 130.921 25.3485 131.535 25.0227C132.156 24.6894 132.618 24.2311 132.921 23.6477C133.232 23.0568 133.387 22.3788 133.387 21.6136C133.387 20.8409 133.232 20.1667 132.921 19.5909C132.618 19.0076 132.156 18.5568 131.535 18.2386C130.914 17.9129 130.126 17.75 129.171 17.75H125.853V37H120.933ZM151.474 29.5682V19.5455H156.315V37H151.667V33.8295H151.485C151.091 34.8523 150.436 35.6742 149.519 36.2955C148.61 36.9167 147.5 37.2273 146.19 37.2273C145.023 37.2273 143.996 36.9621 143.11 36.4318C142.224 35.9015 141.531 35.1477 141.031 34.1705C140.538 33.1932 140.288 32.0227 140.281 30.6591V19.5455H145.121V29.7955C145.129 30.8258 145.406 31.6402 145.951 32.2386C146.496 32.8371 147.228 33.1364 148.144 33.1364C148.728 33.1364 149.273 33.0038 149.781 32.7386C150.288 32.4659 150.697 32.0644 151.008 31.5341C151.326 31.0038 151.481 30.3485 151.474 29.5682ZM163.748 13.7273V37H158.907V13.7273H163.748ZM180.868 24.5227L176.436 24.7955C176.361 24.4167 176.198 24.0758 175.948 23.7727C175.698 23.4621 175.368 23.2159 174.959 23.0341C174.558 22.8447 174.077 22.75 173.516 22.75C172.766 22.75 172.133 22.9091 171.618 23.2273C171.103 23.5379 170.846 23.9545 170.846 24.4773C170.846 24.8939 171.012 25.2462 171.346 25.5341C171.679 25.822 172.251 26.053 173.061 26.2273L176.221 26.8636C177.918 27.2121 179.183 27.7727 180.016 28.5455C180.849 29.3182 181.266 30.3333 181.266 31.5909C181.266 32.7348 180.929 33.7386 180.255 34.6023C179.588 35.4659 178.671 36.1402 177.505 36.625C176.346 37.1023 175.008 37.3409 173.493 37.3409C171.183 37.3409 169.342 36.8598 167.971 35.8977C166.607 34.928 165.808 33.6098 165.573 31.9432L170.334 31.6932C170.478 32.3977 170.827 32.9356 171.38 33.3068C171.933 33.6705 172.641 33.8523 173.505 33.8523C174.353 33.8523 175.035 33.6894 175.55 33.3636C176.073 33.0303 176.338 32.6023 176.346 32.0795C176.338 31.6402 176.152 31.2803 175.789 31C175.425 30.7121 174.865 30.4924 174.107 30.3409L171.084 29.7386C169.38 29.3977 168.111 28.8068 167.277 27.9659C166.452 27.125 166.039 26.053 166.039 24.75C166.039 23.6288 166.342 22.6629 166.948 21.8523C167.561 21.0417 168.421 20.4167 169.527 19.9773C170.641 19.5379 171.944 19.3182 173.436 19.3182C175.641 19.3182 177.376 19.7841 178.641 20.7159C179.914 21.6477 180.656 22.9167 180.868 24.5227ZM190.989 37.3409C189.193 37.3409 187.648 36.9773 186.352 36.25C185.065 35.5152 184.072 34.4773 183.375 33.1364C182.678 31.7879 182.33 30.1932 182.33 28.3523C182.33 26.5568 182.678 24.9811 183.375 23.625C184.072 22.2689 185.053 21.2121 186.318 20.4545C187.591 19.697 189.084 19.3182 190.796 19.3182C191.947 19.3182 193.019 19.5038 194.012 19.875C195.012 20.2386 195.883 20.7879 196.625 21.5227C197.375 22.2576 197.959 23.1818 198.375 24.2955C198.792 25.4015 199 26.697 199 28.1818V29.5114H184.262V26.5114H194.443C194.443 25.8144 194.292 25.197 193.989 24.6591C193.686 24.1212 193.265 23.7008 192.727 23.3977C192.197 23.0871 191.58 22.9318 190.875 22.9318C190.14 22.9318 189.489 23.1023 188.921 23.4432C188.36 23.7765 187.921 24.2273 187.602 24.7955C187.284 25.3561 187.121 25.9811 187.114 26.6705V29.5227C187.114 30.3864 187.273 31.1326 187.591 31.7614C187.917 32.3902 188.375 32.875 188.966 33.2159C189.557 33.5568 190.258 33.7273 191.068 33.7273C191.606 33.7273 192.099 33.6515 192.546 33.5C192.993 33.3485 193.375 33.1212 193.693 32.8182C194.012 32.5152 194.254 32.1439 194.421 31.7045L198.898 32C198.671 33.0758 198.205 34.0152 197.5 34.8182C196.803 35.6136 195.902 36.2348 194.796 36.6818C193.697 37.1212 192.428 37.3409 190.989 37.3409ZM200.97 37V13.7273H210.152C211.917 13.7273 213.421 14.0644 214.663 14.7386C215.906 15.4053 216.853 16.3333 217.504 17.5227C218.163 18.7045 218.493 20.0682 218.493 21.6136C218.493 23.1591 218.16 24.5227 217.493 25.7045C216.826 26.8864 215.86 27.8068 214.595 28.4659C213.338 29.125 211.815 29.4545 210.027 29.4545H204.175V25.5114H209.232C210.179 25.5114 210.959 25.3485 211.572 25.0227C212.194 24.6894 212.656 24.2311 212.959 23.6477C213.269 23.0568 213.425 22.3788 213.425 21.6136C213.425 20.8409 213.269 20.1667 212.959 19.5909C212.656 19.0076 212.194 18.5568 211.572 18.2386C210.951 17.9129 210.163 17.75 209.209 17.75H205.891V37H200.97ZM220.318 37V19.5455H225.011V22.5909H225.193C225.511 21.5076 226.045 20.6894 226.795 20.1364C227.545 19.5758 228.409 19.2955 229.386 19.2955C229.629 19.2955 229.89 19.3106 230.17 19.3409C230.451 19.3712 230.697 19.4129 230.909 19.4659V23.7614C230.682 23.6932 230.367 23.6326 229.966 23.5795C229.564 23.5265 229.197 23.5 228.864 23.5C228.151 23.5 227.515 23.6553 226.954 23.9659C226.401 24.2689 225.962 24.6932 225.636 25.2386C225.318 25.7841 225.159 26.4129 225.159 27.125V37H220.318ZM239.206 37.3409C237.441 37.3409 235.914 36.9659 234.626 36.2159C233.346 35.4583 232.357 34.4053 231.66 33.0568C230.963 31.7008 230.615 30.1288 230.615 28.3409C230.615 26.5379 230.963 24.9621 231.66 23.6136C232.357 22.2576 233.346 21.2045 234.626 20.4545C235.914 19.697 237.441 19.3182 239.206 19.3182C240.971 19.3182 242.494 19.697 243.774 20.4545C245.062 21.2045 246.054 22.2576 246.751 23.6136C247.448 24.9621 247.797 26.5379 247.797 28.3409C247.797 30.1288 247.448 31.7008 246.751 33.0568C246.054 34.4053 245.062 35.4583 243.774 36.2159C242.494 36.9659 240.971 37.3409 239.206 37.3409ZM239.228 33.5909C240.031 33.5909 240.702 33.3636 241.24 32.9091C241.778 32.447 242.183 31.8182 242.456 31.0227C242.736 30.2273 242.876 29.322 242.876 28.3068C242.876 27.2917 242.736 26.3864 242.456 25.5909C242.183 24.7955 241.778 24.1667 241.24 23.7045C240.702 23.2424 240.031 23.0114 239.228 23.0114C238.418 23.0114 237.736 23.2424 237.183 23.7045C236.637 24.1667 236.225 24.7955 235.944 25.5909C235.672 26.3864 235.535 27.2917 235.535 28.3068C235.535 29.322 235.672 30.2273 235.944 31.0227C236.225 31.8182 236.637 32.447 237.183 32.9091C237.736 33.3636 238.418 33.5909 239.228 33.5909Z" fill="white"/>
</svg>
